<mxfile host="www.draw.io" modified="2019-12-30T10:25:11.984Z" agent="Mozilla/5.0 (Macintosh; Intel Mac OS X 10_14_4) AppleWebKit/537.36 (KHTML, like Gecko) Chrome/79.0.3945.88 Safari/537.36" etag="rCAQVBoSwckEtccxK_Pv" version="12.4.7" type="github">
  <diagram id="O758KTrr7liuaa_ls6n9" name="第 1 页">
    <mxGraphModel dx="1424" dy="768" grid="1" gridSize="10" guides="1" tooltips="1" connect="1" arrows="1" fold="1" page="1" pageScale="1" pageWidth="827" pageHeight="1169" math="1" shadow="0">
      <root>
        <mxCell id="0"/>
        <mxCell id="1" parent="0"/>
        <mxCell id="smJ_Glh9SqQhHsjIq0Uy-3" value="" style="edgeStyle=orthogonalEdgeStyle;rounded=0;orthogonalLoop=1;jettySize=auto;html=1;entryX=0.5;entryY=0;entryDx=0;entryDy=0;" parent="1" source="smJ_Glh9SqQhHsjIq0Uy-1" target="smJ_Glh9SqQhHsjIq0Uy-4" edge="1">
          <mxGeometry relative="1" as="geometry">
            <mxPoint x="370" y="320" as="targetPoint"/>
          </mxGeometry>
        </mxCell>
        <mxCell id="smJ_Glh9SqQhHsjIq0Uy-1" value="[6,5,4,12,3,9]" style="rounded=0;whiteSpace=wrap;html=1;" parent="1" vertex="1">
          <mxGeometry x="310" y="240" width="120" height="60" as="geometry"/>
        </mxCell>
        <mxCell id="smJ_Glh9SqQhHsjIq0Uy-7" value="" style="edgeStyle=orthogonalEdgeStyle;rounded=0;orthogonalLoop=1;jettySize=auto;html=1;" parent="1" source="smJ_Glh9SqQhHsjIq0Uy-4" edge="1">
          <mxGeometry relative="1" as="geometry">
            <mxPoint x="370" y="480" as="targetPoint"/>
          </mxGeometry>
        </mxCell>
        <mxCell id="smJ_Glh9SqQhHsjIq0Uy-12" value="" style="edgeStyle=orthogonalEdgeStyle;rounded=0;orthogonalLoop=1;jettySize=auto;html=1;endArrow=classic;endFill=1;entryX=0.5;entryY=0;entryDx=0;entryDy=0;" parent="1" source="smJ_Glh9SqQhHsjIq0Uy-4" target="smJ_Glh9SqQhHsjIq0Uy-9" edge="1">
          <mxGeometry relative="1" as="geometry">
            <mxPoint x="230" y="360" as="targetPoint"/>
          </mxGeometry>
        </mxCell>
        <mxCell id="smJ_Glh9SqQhHsjIq0Uy-13" value="&amp;lt; 6" style="text;html=1;align=center;verticalAlign=middle;resizable=0;points=[];labelBackgroundColor=#ffffff;" parent="smJ_Glh9SqQhHsjIq0Uy-12" vertex="1" connectable="0">
          <mxGeometry x="0.0778" y="1" relative="1" as="geometry">
            <mxPoint x="-1" y="22" as="offset"/>
          </mxGeometry>
        </mxCell>
        <mxCell id="smJ_Glh9SqQhHsjIq0Uy-15" value="" style="edgeStyle=orthogonalEdgeStyle;rounded=0;orthogonalLoop=1;jettySize=auto;html=1;endArrow=classic;endFill=1;entryX=0.5;entryY=0;entryDx=0;entryDy=0;" parent="1" source="smJ_Glh9SqQhHsjIq0Uy-4" target="smJ_Glh9SqQhHsjIq0Uy-16" edge="1">
          <mxGeometry relative="1" as="geometry">
            <mxPoint x="510" y="360" as="targetPoint"/>
          </mxGeometry>
        </mxCell>
        <mxCell id="smJ_Glh9SqQhHsjIq0Uy-18" value="&amp;gt; 6&lt;br&gt;" style="text;html=1;align=center;verticalAlign=middle;resizable=0;points=[];labelBackgroundColor=#ffffff;" parent="smJ_Glh9SqQhHsjIq0Uy-15" vertex="1" connectable="0">
          <mxGeometry x="0.32" y="1" relative="1" as="geometry">
            <mxPoint as="offset"/>
          </mxGeometry>
        </mxCell>
        <mxCell id="smJ_Glh9SqQhHsjIq0Uy-4" value="pivot = 6" style="rhombus;whiteSpace=wrap;html=1;rounded=0;shadow=0;" parent="1" vertex="1">
          <mxGeometry x="310" y="350" width="120" height="80" as="geometry"/>
        </mxCell>
        <mxCell id="smJ_Glh9SqQhHsjIq0Uy-10" value="" style="edgeStyle=orthogonalEdgeStyle;rounded=0;orthogonalLoop=1;jettySize=auto;html=1;endArrow=none;endFill=0;" parent="1" source="smJ_Glh9SqQhHsjIq0Uy-8" target="smJ_Glh9SqQhHsjIq0Uy-9" edge="1">
          <mxGeometry relative="1" as="geometry"/>
        </mxCell>
        <mxCell id="smJ_Glh9SqQhHsjIq0Uy-17" value="" style="edgeStyle=orthogonalEdgeStyle;rounded=0;orthogonalLoop=1;jettySize=auto;html=1;endArrow=none;endFill=0;" parent="1" source="smJ_Glh9SqQhHsjIq0Uy-8" target="smJ_Glh9SqQhHsjIq0Uy-16" edge="1">
          <mxGeometry relative="1" as="geometry"/>
        </mxCell>
        <mxCell id="smJ_Glh9SqQhHsjIq0Uy-8" value="6" style="rounded=0;whiteSpace=wrap;html=1;fillColor=#d5e8d4;strokeColor=#82b366;" parent="1" vertex="1">
          <mxGeometry x="350" y="480" width="40" height="60" as="geometry"/>
        </mxCell>
        <mxCell id="smJ_Glh9SqQhHsjIq0Uy-20" value="" style="edgeStyle=orthogonalEdgeStyle;rounded=0;orthogonalLoop=1;jettySize=auto;html=1;endArrow=classic;endFill=1;" parent="1" source="smJ_Glh9SqQhHsjIq0Uy-9" edge="1">
          <mxGeometry relative="1" as="geometry">
            <mxPoint x="230" y="620" as="targetPoint"/>
          </mxGeometry>
        </mxCell>
        <mxCell id="smJ_Glh9SqQhHsjIq0Uy-9" value="5,4,3" style="rounded=0;whiteSpace=wrap;html=1;" parent="1" vertex="1">
          <mxGeometry x="190" y="480" width="80" height="60" as="geometry"/>
        </mxCell>
        <mxCell id="smJ_Glh9SqQhHsjIq0Uy-47" value="" style="edgeStyle=orthogonalEdgeStyle;rounded=0;orthogonalLoop=1;jettySize=auto;html=1;endArrow=classic;endFill=1;" parent="1" source="smJ_Glh9SqQhHsjIq0Uy-16" edge="1">
          <mxGeometry relative="1" as="geometry">
            <mxPoint x="510" y="620" as="targetPoint"/>
          </mxGeometry>
        </mxCell>
        <mxCell id="smJ_Glh9SqQhHsjIq0Uy-16" value="12,9" style="rounded=0;whiteSpace=wrap;html=1;" parent="1" vertex="1">
          <mxGeometry x="470" y="480" width="80" height="60" as="geometry"/>
        </mxCell>
        <mxCell id="smJ_Glh9SqQhHsjIq0Uy-23" value="" style="edgeStyle=orthogonalEdgeStyle;rounded=0;orthogonalLoop=1;jettySize=auto;html=1;endArrow=classic;endFill=1;" parent="1" source="smJ_Glh9SqQhHsjIq0Uy-21" edge="1">
          <mxGeometry relative="1" as="geometry">
            <mxPoint x="230" y="780" as="targetPoint"/>
          </mxGeometry>
        </mxCell>
        <mxCell id="smJ_Glh9SqQhHsjIq0Uy-26" value="" style="edgeStyle=orthogonalEdgeStyle;rounded=0;orthogonalLoop=1;jettySize=auto;html=1;endArrow=classic;endFill=1;" parent="1" source="smJ_Glh9SqQhHsjIq0Uy-21" target="smJ_Glh9SqQhHsjIq0Uy-27" edge="1">
          <mxGeometry relative="1" as="geometry">
            <mxPoint x="90" y="660" as="targetPoint"/>
          </mxGeometry>
        </mxCell>
        <mxCell id="smJ_Glh9SqQhHsjIq0Uy-31" value="&amp;lt;5" style="text;html=1;align=center;verticalAlign=middle;resizable=0;points=[];labelBackgroundColor=#ffffff;" parent="smJ_Glh9SqQhHsjIq0Uy-26" vertex="1" connectable="0">
          <mxGeometry x="0.3529" y="-1" relative="1" as="geometry">
            <mxPoint x="1" y="-5" as="offset"/>
          </mxGeometry>
        </mxCell>
        <mxCell id="smJ_Glh9SqQhHsjIq0Uy-29" value="&amp;gt;5&lt;br&gt;" style="edgeStyle=orthogonalEdgeStyle;rounded=0;orthogonalLoop=1;jettySize=auto;html=1;endArrow=classic;endFill=1;entryX=0.5;entryY=0;entryDx=0;entryDy=0;" parent="1" source="smJ_Glh9SqQhHsjIq0Uy-21" target="smJ_Glh9SqQhHsjIq0Uy-30" edge="1">
          <mxGeometry x="0.2941" relative="1" as="geometry">
            <mxPoint x="360" y="700" as="targetPoint"/>
            <mxPoint as="offset"/>
          </mxGeometry>
        </mxCell>
        <mxCell id="smJ_Glh9SqQhHsjIq0Uy-21" value="pivot = 5" style="rhombus;whiteSpace=wrap;html=1;" parent="1" vertex="1">
          <mxGeometry x="170" y="620" width="120" height="80" as="geometry"/>
        </mxCell>
        <mxCell id="smJ_Glh9SqQhHsjIq0Uy-24" value="5" style="rounded=0;whiteSpace=wrap;html=1;fillColor=#d5e8d4;strokeColor=#82b366;" parent="1" vertex="1">
          <mxGeometry x="210" y="780" width="40" height="60" as="geometry"/>
        </mxCell>
        <mxCell id="smJ_Glh9SqQhHsjIq0Uy-33" value="" style="edgeStyle=orthogonalEdgeStyle;rounded=0;orthogonalLoop=1;jettySize=auto;html=1;endArrow=classic;endFill=1;" parent="1" source="smJ_Glh9SqQhHsjIq0Uy-27" edge="1">
          <mxGeometry relative="1" as="geometry">
            <mxPoint x="120" y="920" as="targetPoint"/>
          </mxGeometry>
        </mxCell>
        <mxCell id="smJ_Glh9SqQhHsjIq0Uy-27" value="4,3" style="rounded=0;whiteSpace=wrap;html=1;" parent="1" vertex="1">
          <mxGeometry x="100" y="780" width="40" height="60" as="geometry"/>
        </mxCell>
        <mxCell id="smJ_Glh9SqQhHsjIq0Uy-30" value="空" style="rounded=0;whiteSpace=wrap;html=1;" parent="1" vertex="1">
          <mxGeometry x="320" y="780" width="40" height="60" as="geometry"/>
        </mxCell>
        <mxCell id="smJ_Glh9SqQhHsjIq0Uy-36" value="" style="edgeStyle=orthogonalEdgeStyle;rounded=0;orthogonalLoop=1;jettySize=auto;html=1;endArrow=classic;endFill=1;" parent="1" source="smJ_Glh9SqQhHsjIq0Uy-34" edge="1">
          <mxGeometry relative="1" as="geometry">
            <mxPoint x="120" y="1080" as="targetPoint"/>
          </mxGeometry>
        </mxCell>
        <mxCell id="smJ_Glh9SqQhHsjIq0Uy-39" value="" style="edgeStyle=orthogonalEdgeStyle;rounded=0;orthogonalLoop=1;jettySize=auto;html=1;endArrow=classic;endFill=1;" parent="1" source="smJ_Glh9SqQhHsjIq0Uy-34" target="smJ_Glh9SqQhHsjIq0Uy-40" edge="1">
          <mxGeometry relative="1" as="geometry">
            <mxPoint x="-20" y="960" as="targetPoint"/>
          </mxGeometry>
        </mxCell>
        <mxCell id="smJ_Glh9SqQhHsjIq0Uy-44" value="&amp;lt;4" style="text;html=1;align=center;verticalAlign=middle;resizable=0;points=[];labelBackgroundColor=#ffffff;" parent="smJ_Glh9SqQhHsjIq0Uy-39" vertex="1" connectable="0">
          <mxGeometry x="0.1467" y="-1" relative="1" as="geometry">
            <mxPoint x="1" y="4" as="offset"/>
          </mxGeometry>
        </mxCell>
        <mxCell id="smJ_Glh9SqQhHsjIq0Uy-42" value="" style="edgeStyle=orthogonalEdgeStyle;rounded=0;orthogonalLoop=1;jettySize=auto;html=1;endArrow=classic;endFill=1;entryX=0.5;entryY=0;entryDx=0;entryDy=0;" parent="1" source="smJ_Glh9SqQhHsjIq0Uy-34" target="smJ_Glh9SqQhHsjIq0Uy-43" edge="1">
          <mxGeometry relative="1" as="geometry">
            <mxPoint x="260" y="960" as="targetPoint"/>
          </mxGeometry>
        </mxCell>
        <mxCell id="smJ_Glh9SqQhHsjIq0Uy-45" value="&amp;gt;4" style="text;html=1;align=center;verticalAlign=middle;resizable=0;points=[];labelBackgroundColor=#ffffff;" parent="smJ_Glh9SqQhHsjIq0Uy-42" vertex="1" connectable="0">
          <mxGeometry x="0.2533" y="-1" relative="1" as="geometry">
            <mxPoint x="1" y="-4" as="offset"/>
          </mxGeometry>
        </mxCell>
        <mxCell id="smJ_Glh9SqQhHsjIq0Uy-34" value="pivot = 4" style="rhombus;whiteSpace=wrap;html=1;" parent="1" vertex="1">
          <mxGeometry x="60" y="920" width="120" height="80" as="geometry"/>
        </mxCell>
        <mxCell id="smJ_Glh9SqQhHsjIq0Uy-37" value="4" style="rounded=0;whiteSpace=wrap;html=1;fillColor=#d5e8d4;strokeColor=#82b366;" parent="1" vertex="1">
          <mxGeometry x="100" y="1080" width="40" height="60" as="geometry"/>
        </mxCell>
        <mxCell id="smJ_Glh9SqQhHsjIq0Uy-40" value="3" style="rounded=0;whiteSpace=wrap;html=1;fillColor=#d5e8d4;strokeColor=#82b366;" parent="1" vertex="1">
          <mxGeometry x="10" y="1080" width="40" height="60" as="geometry"/>
        </mxCell>
        <mxCell id="smJ_Glh9SqQhHsjIq0Uy-43" value="空" style="rounded=0;whiteSpace=wrap;html=1;" parent="1" vertex="1">
          <mxGeometry x="190" y="1080" width="40" height="60" as="geometry"/>
        </mxCell>
        <mxCell id="smJ_Glh9SqQhHsjIq0Uy-50" value="" style="edgeStyle=orthogonalEdgeStyle;rounded=0;orthogonalLoop=1;jettySize=auto;html=1;endArrow=classic;endFill=1;" parent="1" source="smJ_Glh9SqQhHsjIq0Uy-48" edge="1">
          <mxGeometry relative="1" as="geometry">
            <mxPoint x="510" y="780" as="targetPoint"/>
          </mxGeometry>
        </mxCell>
        <mxCell id="smJ_Glh9SqQhHsjIq0Uy-58" value="" style="edgeStyle=orthogonalEdgeStyle;rounded=0;orthogonalLoop=1;jettySize=auto;html=1;endArrow=classic;endFill=1;entryX=0.5;entryY=0;entryDx=0;entryDy=0;" parent="1" source="smJ_Glh9SqQhHsjIq0Uy-48" target="smJ_Glh9SqQhHsjIq0Uy-54" edge="1">
          <mxGeometry relative="1" as="geometry">
            <mxPoint x="370" y="660" as="targetPoint"/>
          </mxGeometry>
        </mxCell>
        <mxCell id="smJ_Glh9SqQhHsjIq0Uy-59" value="&amp;lt;12" style="text;html=1;align=center;verticalAlign=middle;resizable=0;points=[];labelBackgroundColor=#ffffff;" parent="smJ_Glh9SqQhHsjIq0Uy-58" vertex="1" connectable="0">
          <mxGeometry x="0.1847" y="1" relative="1" as="geometry">
            <mxPoint as="offset"/>
          </mxGeometry>
        </mxCell>
        <mxCell id="smJ_Glh9SqQhHsjIq0Uy-62" value="&amp;gt; 12&lt;br&gt;" style="edgeStyle=orthogonalEdgeStyle;rounded=0;orthogonalLoop=1;jettySize=auto;html=1;endArrow=classic;endFill=1;" parent="1" source="smJ_Glh9SqQhHsjIq0Uy-48" target="smJ_Glh9SqQhHsjIq0Uy-60" edge="1">
          <mxGeometry x="0.2941" relative="1" as="geometry">
            <mxPoint x="650" y="660" as="targetPoint"/>
            <mxPoint as="offset"/>
          </mxGeometry>
        </mxCell>
        <mxCell id="smJ_Glh9SqQhHsjIq0Uy-48" value="pivot = 12" style="rhombus;whiteSpace=wrap;html=1;" parent="1" vertex="1">
          <mxGeometry x="450" y="620" width="120" height="80" as="geometry"/>
        </mxCell>
        <mxCell id="smJ_Glh9SqQhHsjIq0Uy-51" value="12" style="rounded=0;whiteSpace=wrap;html=1;fillColor=#d5e8d4;strokeColor=#82b366;" parent="1" vertex="1">
          <mxGeometry x="490" y="780" width="40" height="60" as="geometry"/>
        </mxCell>
        <mxCell id="smJ_Glh9SqQhHsjIq0Uy-54" value="9" style="rounded=0;whiteSpace=wrap;html=1;fillColor=#d5e8d4;strokeColor=#82b366;" parent="1" vertex="1">
          <mxGeometry x="393" y="780" width="40" height="60" as="geometry"/>
        </mxCell>
        <mxCell id="smJ_Glh9SqQhHsjIq0Uy-60" value="空" style="rounded=0;whiteSpace=wrap;html=1;" parent="1" vertex="1">
          <mxGeometry x="600" y="780" width="40" height="60" as="geometry"/>
        </mxCell>
      </root>
    </mxGraphModel>
  </diagram>
</mxfile>
